HIERARCHY
ROOT hip
{
  OFFSET 55.9765 136.054 -89.7281
  CHANNELS 6 Xposition Yposition Zposition Zrotation Xrotation Yrotation
  JOINT abdomen
  {
    OFFSET 0 20.6881 -0.73152
    CHANNELS 3 Zrotation Xrotation Yrotation
    JOINT chest
    {
      OFFSET 0 11.7043 -0.48768
      CHANNELS 3 Zrotation Xrotation Yrotation
      JOINT neck
      {
        OFFSET 0 22.1894 -2.19456
        CHANNELS 3 Zrotation Xrotation Yrotation
        JOINT head
        {
          OFFSET -0.24384 7.07133 1.2192
          CHANNELS 3 Zrotation Xrotation Yrotation
          JOINT leftEye
          {
            OFFSET 4.14528 8.04674 8.04672
            CHANNELS 3 Zrotation Xrotation Yrotation
            End Site
            {
              OFFSET 1 0 0
            }
          }
          JOINT rightEye
          {
            OFFSET -3.6576 8.04674 8.04672
            CHANNELS 3 Zrotation Xrotation Yrotation
            End Site
            {
              OFFSET 1 0 0
            }
          }
        }
      }
      JOINT rCollar
      {
        OFFSET -2.68224 19.2634 -4.8768
        CHANNELS 3 Zrotation Xrotation Yrotation
        JOINT rShldr
        {
          OFFSET -8.77824 -1.95073 1.46304
          CHANNELS 3 Zrotation Xrotation Yrotation
          JOINT rForeArm
          {
            OFFSET -28.1742 -1.7115 0.48768
            CHANNELS 3 Zrotation Xrotation Yrotation
            JOINT rHand
            {
              OFFSET -22.5879 0.773209 7.07136
              CHANNELS 3 Zrotation Xrotation Yrotation
              JOINT rThumb1
              {
                OFFSET -1.2192 -0.487915 3.41376
                CHANNELS 3 Zrotation Xrotation Yrotation
                JOINT rThumb2
                {
                  OFFSET -3.37035 -0.52449 3.41376
                  CHANNELS 3 Zrotation Xrotation Yrotation
                  End Site
                  {
                    OFFSET -1.78271 -1.18214 1.43049
                  }
                }
              }
              JOINT rIndex1
              {
                OFFSET -7.75947 0.938293 5.60832
                CHANNELS 3 Zrotation Xrotation Yrotation
                JOINT rIndex2
                {
                  OFFSET -2.54057 -0.884171 1.56538
                  CHANNELS 3 Zrotation Xrotation Yrotation
                  End Site
                  {
                    OFFSET -1.62519 -0.234802 1.16502
                  }
                }
              }
              JOINT rMid1
              {
                OFFSET -8.24714 1.18213 3.41376
                CHANNELS 3 Zrotation Xrotation Yrotation
                JOINT rMid2
                {
                  OFFSET -3.10165 -0.590103 1.0647
                  CHANNELS 3 Zrotation Xrotation Yrotation
                  End Site
                  {
                    OFFSET -2.48547 -0.328903 0.83742
                  }
                }
              }
              JOINT rRing1
              {
                OFFSET -8.82822 0.546677 1.51678
                CHANNELS 3 Zrotation Xrotation Yrotation
                JOINT rRing2
                {
                  OFFSET -2.60934 -0.819778 -0.0198488
                  CHANNELS 3 Zrotation Xrotation Yrotation
                  End Site
                  {
                    OFFSET -2.33842 -0.294052 0.168128
                  }
                }
              }
              JOINT rPinky1
              {
                OFFSET -8.27202 -0.0477905 -0.4584
                CHANNELS 3 Zrotation Xrotation Yrotation
                JOINT rPinky2
                {
                  OFFSET -1.82734 -0.647385 -0.700984
                  CHANNELS 3 Zrotation Xrotation Yrotation
                  End Site
                  {
                    OFFSET -1.69225 -0.51767 -0.607171
                  }
                }
              }
            }
          }
        }
      }
      JOINT lCollar
      {
        OFFSET 2.68224 19.2634 -4.8768
        CHANNELS 3 Zrotation Xrotation Yrotation
        JOINT lShldr
        {
          OFFSET 8.77824 -1.95073 1.46304
          CHANNELS 3 Zrotation Xrotation Yrotation
          JOINT lForeArm
          {
            OFFSET 28.1742 -1.7115 0.48768
            CHANNELS 3 Zrotation Xrotation Yrotation
            JOINT lHand
            {
              OFFSET 22.5879 0.773209 7.07136
              CHANNELS 3 Zrotation Xrotation Yrotation
              JOINT lThumb1
              {
                OFFSET 1.2192 -0.487915 3.41376
                CHANNELS 3 Zrotation Xrotation Yrotation
                JOINT lThumb2
                {
                  OFFSET 3.37035 -0.52449 3.41376
                  CHANNELS 3 Zrotation Xrotation Yrotation
                  End Site
                  {
                    OFFSET 1.78271 -1.18214 1.43049
                  }
                }
              }
              JOINT lIndex1
              {
                OFFSET 7.75947 0.938293 5.60832
                CHANNELS 3 Zrotation Xrotation Yrotation
                JOINT lIndex2
                {
                  OFFSET 2.54057 -0.884171 1.56538
                  CHANNELS 3 Zrotation Xrotation Yrotation
                  End Site
                  {
                    OFFSET 1.62519 -0.234802 1.16502
                  }
                }
              }
              JOINT lMid1
              {
                OFFSET 8.24714 1.18213 3.41376
                CHANNELS 3 Zrotation Xrotation Yrotation
                JOINT lMid2
                {
                  OFFSET 3.10165 -0.590103 1.0647
                  CHANNELS 3 Zrotation Xrotation Yrotation
                  End Site
                  {
                    OFFSET 2.48547 -0.328903 0.83742
                  }
                }
              }
              JOINT lRing1
              {
                OFFSET 8.82822 0.546677 1.51678
                CHANNELS 3 Zrotation Xrotation Yrotation
                JOINT lRing2
                {
                  OFFSET 2.60934 -0.819778 -0.0198488
                  CHANNELS 3 Zrotation Xrotation Yrotation
                  End Site
                  {
                    OFFSET 2.33842 -0.294052 0.168128
                  }
                }
              }
              JOINT lPinky1
              {
                OFFSET 8.27202 -0.0477905 -0.4584
                CHANNELS 3 Zrotation Xrotation Yrotation
                JOINT lPinky2
                {
                  OFFSET 1.82734 -0.647385 -0.700984
                  CHANNELS 3 Zrotation Xrotation Yrotation
                  End Site
                  {
                    OFFSET 1.69225 -0.51767 -0.607171
                  }
                }
              }
            }
          }
        }
      }
    }
  }
  JOINT rButtock
  {
    OFFSET -8.77824 4.35084 1.2192
    CHANNELS 3 Zrotation Xrotation Yrotation
    JOINT rThigh
    {
      OFFSET 0 -1.70687 -2.19456
      CHANNELS 3 Zrotation Xrotation Yrotation
      JOINT rShin
      {
        OFFSET 0 -36.8199 0.73152
        CHANNELS 3 Zrotation Xrotation Yrotation
        JOINT rFoot
        {
          OFFSET 0.73152 -45.1104 -5.12064
          CHANNELS 3 Zrotation Xrotation Yrotation
          End Site
          {
            OFFSET -1.1221 -3.69964 12.103
          }
        }
      }
    }
  }
  JOINT lButtock
  {
    OFFSET 8.77824 4.35084 1.2192
    CHANNELS 3 Zrotation Xrotation Yrotation
    JOINT lThigh
    {
      OFFSET 0 -1.70687 -2.19456
      CHANNELS 3 Zrotation Xrotation Yrotation
      JOINT lShin
      {
        OFFSET 0 -36.8199 0.73152
        CHANNELS 3 Zrotation Xrotation Yrotation
        JOINT lFoot
        {
          OFFSET -0.73152 -45.1104 -5.12064
          CHANNELS 3 Zrotation Xrotation Yrotation
          End Site
          {
            OFFSET 1.1221 -3.69964 12.103
          }
        }
      }
    }
  }
}
MOTION
Frames:	4
Frame Time:	0.00833333
48.0384 85.1388 191.052 -0.311928 -0.00136762 0.00530377 0.41059 -0.00336424 0.0117806 0.113459 -0.00539521 0.0196593 -2.30152e-015 0 -7.45443e-017 -6.87981e-015 3.18055e-015 -2.17421e-016 -0 0 0 -0 0 0 -1.0449e-015 1.3977e-017 9.93923e-017 -2.23099e-014 6.08778e-016 0 -4.18442e-013 1.35571e-013 -3.18055e-014 -4.80545e-012 -7.98617e-014 -1.65389e-013 -1.13335e-011 1.13068e-013 -3.84847e-013 -1.95723e-011 1.94014e-013 -6.69507e-013 -1.13275e-011 1.16488e-013 -3.94389e-013 7.73091 5.47488 0.417314 -1.13334e-011 1.13307e-013 -3.78486e-013 2.90554 0.965183 0.102902 -1.13224e-011 1.13605e-013 -3.84847e-013 10.2786 0.731801 0.0259123 -1.13353e-011 1.1291e-013 -3.78486e-013 2.22167 -0.733487 -0.20892 -1.1418e-015 1.41712e-017 -1.98785e-016 -2.62133e-014 3.16813e-016 -1.59028e-015 -4.19784e-013 -1.18078e-013 -3.18055e-015 -4.80653e-012 1.63003e-013 -1.7175e-013 -1.13357e-011 9.01536e-014 -3.84847e-013 -1.95707e-011 1.49486e-013 -6.58375e-013 -1.13438e-011 9.38264e-014 -3.75305e-013 -7.73091 5.47488 -0.417314 -1.13357e-011 9.05464e-014 -3.88028e-013 -2.90554 0.965183 -0.102902 -1.13423e-011 9.02482e-014 -3.84052e-013 -10.2786 0.731801 -0.0259123 -1.13381e-011 8.82604e-014 -3.94389e-013 -2.22167 -0.733487 0.20892 -2.03217e-016 0 -3.88251e-019 0.770603 -4.17183 -0.0656815 -0.00265486 2.00555 -0.0182702 -0.461828 2.16687 0.0961007 2.03217e-016 0 3.88251e-019 -0.143236 -2.55995 0.0260685 0.00716321 -0.914091 0.0621719 0.453775 3.47457 -0.121225 
48.3212 83.5313 185.623 -5.61818 5.04842 48.8463 -1.5366 -8.41121 -0.363849 1.00466 3.89128 -0.183716 0.37036 2.26084 -0.696917 1.40812 -5.96815 -1.22317 -0 0 0 -0 0 0 5.07375e-015 1.74742e-013 9.9039e-015 23.1487 1.72029 -1.08913 -4.70106 -2.2414 7.22469 6.82929e-005 0.183642 0.0258088 -8.12556e-010 1.57962e-009 -1.67815e-009 -1.40924e-009 2.73206e-009 -2.90084e-009 -8.12553e-010 1.57962e-009 -1.67816e-009 7.73091 5.47488 0.417314 -8.12557e-010 1.57962e-009 -1.67814e-009 2.90554 0.965183 0.102902 -8.12547e-010 1.57962e-009 -1.67815e-009 10.2786 0.731801 0.0259123 -8.12558e-010 1.57962e-009 -1.67814e-009 2.22167 -0.733487 -0.20892 4.959e-015 1.74741e-013 9.66008e-015 -21.2464 4.45042 -1.16921 2.65672 -1.0055 -4.34282 -0.00506092 1.5783 -0.221511 -1.04672e-009 6.738e-010 2.34818e-009 -1.79505e-009 1.16896e-009 4.06487e-009 -1.04673e-009 6.73805e-010 2.34819e-009 -7.73091 5.47488 -0.417314 -1.04672e-009 6.73801e-010 2.34817e-009 -2.90554 0.965183 -0.102902 -1.04673e-009 6.73801e-010 2.34818e-009 -10.2786 0.731801 -0.0259123 -1.04672e-009 6.73799e-010 2.34817e-009 -2.22167 -0.733487 0.20892 -2.03217e-016 0 -3.88251e-019 0.362845 -10.8905 2.12386 0.00243908 3.39001 0.0372327 -0.762318 -2.69677 -3.51851 2.03217e-016 0 3.88251e-019 0.278112 -9.6775 -2.78962 0.00554298 1.23714 0.0215864 0.521188 1.24718 1.42988 
48.3301 83.5286 185.622 -14.9012 -2.68569 99.5899 -3.71913 -17.2944 -0.787808 1.97493 8.01165 -0.4012 0.826142 4.64651 -1.43349 2.60856 -12.2696 -2.55506 -0 0 0 -0 0 0 1.17204e-014 3.68155e-013 2.12172e-014 47.6943 3.53468 -2.24098 -9.06341 -4.49367 14.9006 -3.98373e-005 0.37905 0.0532719 -1.71051e-009 3.35239e-009 -3.5616e-009 -2.96668e-009 5.79823e-009 -6.15661e-009 -1.71051e-009 3.35239e-009 -3.56161e-009 7.73091 5.47488 0.417314 -1.71051e-009 3.35239e-009 -3.5616e-009 2.90554 0.965183 0.102902 -1.7105e-009 3.35239e-009 -3.5616e-009 10.2786 0.731801 0.0259123 -1.71051e-009 3.35239e-009 -3.5616e-009 2.22167 -0.733487 -0.20892 1.15878e-014 3.68154e-013 2.10308e-014 -43.5046 9.15287 -2.43107 5.30092 -2.04968 -8.93954 0.0028739 3.244 -0.45586 -2.20704e-009 1.437e-009 4.98086e-009 -3.78479e-009 2.49302e-009 8.62226e-009 -2.20705e-009 1.437e-009 4.98087e-009 -7.73091 5.47488 -0.417314 -2.20704e-009 1.437e-009 4.98086e-009 -2.90554 0.965183 -0.102902 -2.20705e-009 1.437e-009 4.98086e-009 -10.2786 0.731801 -0.0259123 -2.20705e-009 1.437e-009 4.98085e-009 -2.22167 -0.733487 0.20892 -2.03217e-016 0 -3.88251e-019 0.516801 -17.9487 4.58738 0.0048846 4.85194 0.096099 -1.75131 -7.78486 -7.40383 2.03217e-016 0 3.88251e-019 -0.0694808 -17.1328 -5.94758 0.00718325 3.51015 -0.0213492 0.723407 -1.10578 3.06771 
48.3259 83.5253 185.655 -12.375 -18.7984 143.541 -5.79112 -25.2224 -1.21966 2.87152 11.6841 -0.601665 1.27703 6.7785 -2.10384 3.42752 -17.871 -3.83492 -0 0 0 -0 0 0 1.7311e-014 5.24197e-013 2.95129e-014 69.6429 5.15339 -3.27919 -12.4438 -6.29747 21.7956 -0.000291468 0.550926 0.0774295 -2.415e-009 4.73862e-009 -5.03368e-009 -4.18858e-009 8.19579e-009 -8.70119e-009 -2.415e-009 4.73862e-009 -5.03368e-009 7.73091 5.47488 0.417314 -2.415e-009 4.73862e-009 -5.03368e-009 2.90554 0.965183 0.102902 -2.415e-009 4.73862e-009 -5.03368e-009 10.2786 0.731801 0.0259123 -2.415e-009 4.73862e-009 -5.03367e-009 2.22167 -0.733487 -0.20892 1.71606e-014 5.24196e-013 2.93778e-014 -63.1819 13.3287 -3.59398 7.51674 -2.94726 -13.044 0.0215342 4.73461 -0.666556 -3.11749e-009 2.02122e-009 7.0453e-009 -5.34601e-009 3.50657e-009 1.21959e-008 -3.1175e-009 2.02123e-009 7.04531e-009 -7.73091 5.47488 -0.417314 -3.11749e-009 2.02122e-009 7.0453e-009 -2.90554 0.965183 -0.102902 -3.1175e-009 2.02122e-009 7.0453e-009 -10.2786 0.731801 -0.0259123 -3.11749e-009 2.02122e-009 7.04529e-009 -2.22167 -0.733487 0.20892 -2.03217e-016 0 -3.88251e-019 1.2159 -24.189 7.00556 0.00453786 6.15891 0.14888 -3.22631 -12.2182 -10.9878 2.03217e-016 0 3.88251e-019 -1.13792 -23.68 -9.07117 0.0114632 5.5396 -0.0598637 1.01764 -3.19643 4.5377 
